<svg xmlns="http://www.w3.org/2000/svg">
  <symbol id="icon-overview" viewBox="0 0 24 24">
    <path d="M4 5.5A1.5 1.5 0 0 1 5.5 4h4A1.5 1.5 0 0 1 11 5.5v4A1.5 1.5 0 0 1 9.5 11h-4A1.5 1.5 0 0 1 4 9.5v-4Z"/>
    <path d="M13 5.5A1.5 1.5 0 0 1 14.5 4h4A1.5 1.5 0 0 1 20 5.5v4a1.5 1.5 0 0 1-1.5 1.5h-4A1.5 1.5 0 0 1 13 9.5v-4Z"/>
    <path d="M4 14.5A1.5 1.5 0 0 1 5.5 13h4a1.5 1.5 0 0 1 1.5 1.5v4A1.5 1.5 0 0 1 9.5 20h-4A1.5 1.5 0 0 1 4 18.5v-4Z"/>
    <path d="M13 14h7"/>
    <path d="M13 18h7"/>
  </symbol>
  <symbol id="icon-class" viewBox="0 0 24 24">
    <path d="M4 19V7.5A2.5 2.5 0 0 1 6.5 5H20v14H4Z"/>
    <path d="M8 9h8"/>
    <path d="M8 13h6"/>
    <path d="M4 19h16"/>
  </symbol>
  <symbol id="icon-grades" viewBox="0 0 24 24">
    <path d="M5 19V5"/>
    <path d="M5 19h15"/>
    <path d="m8 15 3-3 3 2 4-6"/>
    <path d="M17 8h1v1"/>
  </symbol>
  <symbol id="icon-attendance" viewBox="0 0 24 24">
    <path d="M7 4v3"/>
    <path d="M17 4v3"/>
    <path d="M5 8h14"/>
    <path d="M6.5 6h11A1.5 1.5 0 0 1 19 7.5v10A1.5 1.5 0 0 1 17.5 19h-11A1.5 1.5 0 0 1 5 17.5v-10A1.5 1.5 0 0 1 6.5 6Z"/>
    <path d="m8.5 14 2 2 4.5-5"/>
  </symbol>
  <symbol id="icon-homework" viewBox="0 0 24 24">
    <path d="M5 5.5A2.5 2.5 0 0 1 7.5 3H19v15H7.5A2.5 2.5 0 0 0 5 20.5v-15Z"/>
    <path d="M5 20.5A2.5 2.5 0 0 1 7.5 18H19"/>
    <path d="M9 8h6"/>
    <path d="M9 12h4"/>
  </symbol>
  <symbol id="icon-announcements" viewBox="0 0 24 24">
    <path d="M4 13h3l9 4V7l-9 4H4v2Z"/>
    <path d="M7 13v5"/>
    <path d="M18 10.5a3 3 0 0 1 0 3"/>
    <path d="M20 8.5a6 6 0 0 1 0 7"/>
  </symbol>
  <symbol id="icon-fees" viewBox="0 0 24 24">
    <path d="M6 5h12a1 1 0 0 1 1 1v12a1 1 0 0 1-1 1H6a1 1 0 0 1-1-1V6a1 1 0 0 1 1-1Z"/>
    <path d="M8 9h8"/>
    <path d="M8 13h5"/>
    <path d="M16 15.5c0 .8-.7 1.5-1.6 1.5H12"/>
    <path d="M14.4 14H12"/>
  </symbol>
  <symbol id="icon-bus" viewBox="0 0 24 24">
    <path d="M6 4h12a2 2 0 0 1 2 2v9a2 2 0 0 1-2 2H6a2 2 0 0 1-2-2V6a2 2 0 0 1 2-2Z"/>
    <path d="M4 10h16"/>
    <path d="M7 17v2"/>
    <path d="M17 17v2"/>
    <path d="M8 14h.01"/>
    <path d="M16 14h.01"/>
  </symbol>
  <symbol id="icon-registration" viewBox="0 0 24 24">
    <path d="M8 4h8l2 2v14H6V6l2-2Z"/>
    <path d="M9 10h6"/>
    <path d="M9 14h4"/>
    <path d="m14 18 1.5 1.5L19 16"/>
  </symbol>
  <symbol id="icon-logout" viewBox="0 0 24 24">
    <path d="M10 5H6.5A1.5 1.5 0 0 0 5 6.5v11A1.5 1.5 0 0 0 6.5 19H10"/>
    <path d="M13 8l4 4-4 4"/>
    <path d="M17 12H9"/>
  </symbol>
</svg>
